<?xml version="1.0" encoding="UTF-8"?>
<svg version="1.1" xmlns="http://www.w3.org/2000/svg" width="529" height="213">
<path d="M0 0 C174.57 0 349.14 0 529 0 C529 70.29 529 140.58 529 213 C354.43 213 179.86 213 0 213 C0 142.71 0 72.42 0 0 Z " fill="#131313" transform="translate(0,0)"/>
<path d="M0 0 C0.99 0 1.98 0 3 0 C1.70526096 2.75954012 0.27629168 5.09121861 -1.6171875 7.4765625 C-2.39497559 8.46873779 -2.39497559 8.46873779 -3.18847656 9.48095703 C-3.7450293 10.18849121 -4.30158203 10.89602539 -4.875 11.625 C-15.30454463 25.08557644 -24.39172907 39.32390328 -33 54 C-33.99802925 55.66784753 -34.99724503 57.33498941 -36 59 C-33.43621536 58.54809906 -30.87414878 58.08872754 -28.3125 57.625 C-27.59126953 57.49867187 -26.87003906 57.37234375 -26.12695312 57.2421875 C-22.200748 56.52507241 -18.66071195 55.660678 -15 54 C-15.5 55.8125 -15.5 55.8125 -17 58 C-20.87238031 59.89965827 -23.76960652 60.97365656 -28.1015625 61.06640625 C-34.30127332 61.21513175 -34.30127332 61.21513175 -39.38330078 64.42626953 C-45.45605326 72.8212983 -48.91607145 83.21564838 -52 93 C-52.36609375 94.01449219 -52.7321875 95.02898437 -53.109375 96.07421875 C-53.9771424 98.92491079 -54.29869833 101.22013995 -54.3125 104.1875 C-54.33763672 105.44626953 -54.33763672 105.44626953 -54.36328125 106.73046875 C-54.16503938 109.0526801 -54.16503938 109.0526801 -52.7109375 110.796875 C-50.84574857 112.34766118 -50.84574857 112.34766118 -47.3125 112.0625 C-38.92644184 110.5907238 -33.67315656 103.94671441 -28.7421875 97.5 C-25.79012653 93.2638587 -23.79102987 88.79060398 -21.7109375 84.08203125 C-18.27499457 76.68648563 -14.49189216 70.74594608 -7 67 C0.0521327 66.43127962 0.0521327 66.43127962 3.5 68.5 C5.63286257 72.05477095 5.80303698 75.03369559 5 79 C2.6769008 84.93131711 -0.53408446 89.5966941 -6 93 C-9.34426556 93.95263937 -12.54527185 94.48645933 -16 95 C-16 98.63 -16 102.26 -16 106 C-11.32293726 107.16926569 -10.19059666 106.68275579 -6.18945312 104.44506836 C1.51944537 99.3570922 5.32704372 91.04625326 9.171875 82.97851562 C12.58942299 76.10458387 16.75848999 70.1395593 24 67 C27.37588902 66.50106823 30.81392765 66.16866618 33.7109375 68.19921875 C36.40543464 71.9633496 35.712986 76.62273346 35 81 C32.94930432 85.8067725 30.01246062 89.67787072 25.625 92.5625 C21.3169005 94.27088428 18.58107544 94.32147898 14 94 C13.94583812 95.60379341 13.90713362 97.20811406 13.875 98.8125 C13.85179687 99.70582031 13.82859375 100.59914063 13.8046875 101.51953125 C13.81714173 104.25402714 13.81714173 104.25402714 16 107 C22.19736134 106.40977511 26.17239267 104.1242347 30.23828125 99.3984375 C36.43478376 90.36624741 41.30587859 80.88761743 46 71 C44.68 70.67 43.36 70.34 42 70 C43 69 43 69 45.5625 68.9375 C46.366875 68.958125 47.17125 68.97875 48 69 C48.268125 68.15953125 48.53625 67.3190625 48.8125 66.453125 C54.3566609 50.33128869 54.3566609 50.33128869 59.68359375 47.6484375 C62.18529743 47.17293637 64.45781806 46.92838924 67 47 C65.32508169 51.88036541 62.63208039 55.99152948 59.875 60.3125 C59.40707031 61.05306641 58.93914062 61.79363281 58.45703125 62.55664062 C57.30835804 64.37341968 56.15467631 66.18703037 55 68 C57.97 68.33 60.94 68.66 64 69 C64 69.66 64 70.32 64 71 C63.26394531 70.96777344 62.52789062 70.93554688 61.76953125 70.90234375 C55.99771714 70.83881344 55.99771714 70.83881344 51.296875 73.71875 C49.97391007 76.09673759 48.96167264 78.45462042 48 81 C47.45085937 82.27423828 47.45085937 82.27423828 46.890625 83.57421875 C43.69759766 91.12873633 41.7112967 97.77195602 42 106 C46.41690409 105.34564384 49.49357887 102.95886893 52.19897461 99.44091797 C53.38531902 97.67233251 54.51445224 95.87958591 55.625 94.0625 C56.0065625 93.45470703 56.388125 92.84691406 56.78125 92.22070312 C58.46446217 89.53046574 60.09688531 86.82712171 61.6484375 84.05859375 C62.31746094 83.03958984 62.31746094 83.03958984 63 82 C63.66 82 64.32 82 65 82 C61.80133754 92.46552668 55.6680326 103.45873797 45.98828125 109.19140625 C42.9100353 110.44326659 40.27180604 110.302945 37 110 C34.43383368 106.15075052 34.44902324 103.5650696 34 99 C33.64808594 99.45890625 33.29617187 99.9178125 32.93359375 100.390625 C29.01601613 105.2594682 25.336471 109.12277495 18.953125 110.4140625 C15.17791356 110.68372046 13.23337123 110.1711389 10.1875 107.9375 C7.75420868 104.66993737 6.41686598 101.80316659 5 98 C4.41992188 98.61488281 3.83984375 99.22976562 3.2421875 99.86328125 C-6.43883395 109.87978364 -6.43883395 109.87978364 -14.0625 110.5625 C-18 110 -18 110 -20.875 107.4375 C-23.19966516 104.15792187 -24.14207967 100.89963788 -25 97 C-25.49628906 97.72445312 -25.99257812 98.44890625 -26.50390625 99.1953125 C-37.05491778 114.21098356 -37.05491778 114.21098356 -46 116 C-50.83935729 116.38917908 -54.7536108 116.61107762 -59 114 C-62.76545027 109.02422643 -62.96716372 103.16072187 -62.35791016 97.12988281 C-60.43881749 85.70957967 -55.621602 74.05074297 -50 64 C-56.27 64.33 -62.54 64.66 -69 65 C-68.87625 67.124375 -68.7525 69.24875 -68.625 71.4375 C-68.64697192 78.70288148 -69.97873964 82.78080614 -75 88 C-81.76148025 94.6935939 -90.04309532 98.17009957 -99.17285156 100.5715332 C-105.3262835 102.30486685 -108.55650309 104.95960504 -112.75 109.6875 C-123.85311265 121.44551632 -137.43375384 129.34128548 -153.875 130.203125 C-155.24992855 130.22411628 -156.62495009 130.23966128 -158 130.25 C-159.02867187 130.2809375 -159.02867187 130.2809375 -160.078125 130.3125 C-166.15075694 130.35885597 -170.99124593 128.54549005 -175.375 124.3125 C-179.18632954 119.57354529 -178.9421172 113.74421636 -178.578125 107.94921875 C-177.23211997 98.75454926 -171.10572433 91.72939034 -164 86 C-163.34 86 -162.68 86 -162 86 C-162.49371094 85.03578125 -162.98742187 84.0715625 -163.49609375 83.078125 C-164.14344237 81.80219148 -164.79056599 80.52614379 -165.4375 79.25 C-165.76298828 78.61578125 -166.08847656 77.9815625 -166.42382812 77.328125 C-170.91671699 68.43498416 -171.70983649 58.14173265 -169.0234375 48.4921875 C-166.89405745 43.27977865 -164.39444035 38.48942111 -161 34 C-160.46375 33.195625 -159.9275 32.39125 -159.375 31.5625 C-149.85527189 21.2912144 -136.02533929 15.46161201 -122.1796875 14.59375 C-108.96620305 14.21296516 -96.5829409 16.03393943 -83.73583984 18.86523438 C-71.83979541 21.83056108 -71.83979541 21.83056108 -60.15234375 19.6875 C-59.42144531 19.130625 -58.69054687 18.57375 -57.9375 18 C-53.22765469 14.83778158 -49.59883047 14.04675085 -44 15 C-43.01 15.495 -43.01 15.495 -42 16 C-42.3344026 19.09322404 -42.5595118 20.58887768 -44.875 22.75 C-47.58820148 24.34600087 -49.43904622 25.03790228 -52.6015625 24.82421875 C-56.12148097 24.66504931 -58.64841619 24.86748228 -62 26 C-65.93186606 30.15846893 -68.38785113 34.94515185 -71 40 C-71.77412366 41.4236307 -72.55148519 42.8455054 -73.33203125 44.265625 C-75.27099037 47.81927192 -77.14938344 51.39961792 -79 55 C-78.401875 55.268125 -77.80375 55.53625 -77.1875 55.8125 C-75 57 -75 57 -73.70800781 58.53173828 C-68.39718697 63.09710085 -56.40222425 60.90331694 -49.78564453 60.67382812 C-46.16643308 59.79836593 -44.87504678 58.28387946 -42.625 55.375 C-42.21378906 54.37339844 -41.80257812 53.37179688 -41.37890625 52.33984375 C-39.69358513 48.25783367 -37.34801984 45.32298507 -34.5625 41.9375 C-33.60331488 40.73896244 -32.64496654 39.53975467 -31.6875 38.33984375 C-31.22730469 37.76862793 -30.76710937 37.19741211 -30.29296875 36.60888672 C-29.16556121 35.20601366 -28.05044814 33.79327785 -26.9375 32.37890625 C-22.60618516 26.88355055 -18.09283309 21.56050654 -13.51220703 16.27294922 C-11.06561585 13.4420604 -8.65493149 10.59690787 -6.3359375 7.66015625 C-5.54445312 6.65855469 -4.75296875 5.65695313 -3.9375 4.625 C-3.24527344 3.73039062 -2.55304688 2.83578125 -1.83984375 1.9140625 C-0.92912109 0.96660156 -0.92912109 0.96660156 0 0 Z " fill="#D5D5D5" transform="translate(192,36)"/>
<path d="M0 0 C2.4375 1.6875 2.4375 1.6875 4.4375 4.6875 C4.5625 7.375 4.5625 7.375 4.4375 9.6875 C1.56247637 9.27678234 -0.3321767 8.84543598 -2.75 7.1875 C-6.89405735 4.97733608 -10.88605869 4.4476825 -15.5625 4.6875 C-20.65853146 7.00387794 -22.43208508 9.62686216 -24.5625 14.6875 C-26.01686406 24.84748648 -23.49853153 33.75394387 -20.125 43.25 C-19.29100348 45.68813072 -18.45889348 48.12690778 -17.62890625 50.56640625 C-17.25709229 51.6241626 -16.88527832 52.68191895 -16.50219727 53.77172852 C-12.82611486 65.17818532 -12.29008792 81.45304368 -17.30078125 92.44140625 C-19.51796901 96.38841232 -21.77094693 100.11485544 -24.5625 103.6875 C-25.04074219 104.30367188 -25.51898438 104.91984375 -26.01171875 105.5546875 C-33.14665042 113.64214153 -44.94855157 118.76786506 -55.59545898 119.90454102 C-57.67308603 120.02532463 -59.73143655 120.06707482 -61.8125 120.0625 C-62.54686279 120.06161377 -63.28122559 120.06072754 -64.0378418 120.05981445 C-70.89978532 119.91244687 -79.11588415 118.99214998 -84.26953125 114.05078125 C-88.65836931 111.44140394 -94.1597748 112.58803602 -99.12109375 112.8046875 C-104.43949631 112.94735702 -107.91400751 112.6330794 -112.5625 109.6875 C-112.5625 109.0275 -112.5625 108.3675 -112.5625 107.6875 C-111.469375 108.0175 -110.37625 108.3475 -109.25 108.6875 C-103.93377171 110.02844488 -96.60946647 111.21098323 -91.5625 108.6875 C-92.17738281 107.70523438 -92.17738281 107.70523438 -92.8046875 106.703125 C-95.87284538 101.50634084 -97.83722775 97.36024294 -98.4375 91.3125 C-98.84460521 87.21835213 -98.84460521 87.21835213 -101.27734375 84.13671875 C-102.67720502 83.37813471 -104.09181319 82.64616325 -105.51953125 81.94140625 C-109.37839947 79.57296132 -111.0869034 75.85589039 -112.5625 71.6875 C-113.62184447 66.16578411 -112.71508694 61.47780302 -109.953125 56.60546875 C-105.68910789 50.72447886 -99.82475746 45.98393931 -92.5625 44.6875 C-90.55696164 44.6104419 -88.55118073 44.53570753 -86.54467773 44.49023438 C-78.30461811 44.29556601 -73.2352926 43.069827 -66.18359375 38.41015625 C-58.61645765 33.43682239 -50.468249 32.65461674 -41.5625 33.6875 C-37.74770546 34.90248593 -35.28053946 36.68463254 -32.91796875 39.984375 C-30.50601972 44.79437135 -30.78588817 49.44537014 -31.5625 54.6875 C-34.46268151 62.70166824 -38.63755664 69.94003965 -45.6875 74.875 C-49.99019462 78.22400458 -50.54550885 83.59362326 -51.5625 88.6875 C-52.2225 88.6875 -52.8825 88.6875 -53.5625 88.6875 C-53.66433594 89.26757812 -53.76617187 89.84765625 -53.87109375 90.4453125 C-56.00613832 97.36912935 -63.58782334 103.03058584 -69.5625 106.6875 C-73.17290919 108.49748027 -76.83337649 110.13826854 -80.5625 111.6875 C-70.26810133 115.69087726 -61.98504555 115.32231113 -51.5625 111.6875 C-39.22356392 105.64393947 -32.22643702 94.52461228 -27.8125 81.9375 C-22.96540931 67.17078185 -25.06322299 51.17820715 -28.76391602 36.46044922 C-30.90418483 27.78545515 -32.67716195 18.72491079 -29 10.1875 C-22.70146785 -0.22071271 -11.43883419 -4.21430733 0 0 Z " fill="#CCCCCC" transform="translate(391.5625,38.3125)"/>
<path d="M0 0 C1.67038695 0.29013521 3.34095943 0.57920436 5.01171875 0.8671875 C9.05171714 1.56588962 13.08895203 2.27884332 17.125 3 C16.7527832 3.48686279 16.38056641 3.97372559 15.99707031 4.4753418 C12.4519848 9.15111003 9.09940726 13.91120193 5.875 18.8125 C5.441875 19.46669922 5.00875 20.12089844 4.5625 20.79492188 C3.41487188 22.52876128 2.26978947 24.26428503 1.125 26 C0.135 27.485 0.135 27.485 -0.875 29 C-1.38804688 28.855625 -1.90109375 28.71125 -2.4296875 28.5625 C-14.03650605 25.74872581 -28.31263136 24.66257881 -38.875 31 C-44.06070362 34.22746589 -48.00224535 37.48431108 -50.875 43 C-50.84986328 44.39605469 -50.84986328 44.39605469 -50.82421875 45.8203125 C-52.33643693 50.39631844 -55.11661785 51.30327023 -59.28125 53.4375 C-60.2609375 53.911875 -61.240625 54.38625 -62.25 54.875 C-63.22195312 55.37257812 -64.19390625 55.87015625 -65.1953125 56.3828125 C-72.38993819 60 -72.38993819 60 -75.875 60 C-76.52410154 58.41800369 -77.16914694 56.83434276 -77.8125 55.25 C-78.17214844 54.36828125 -78.53179687 53.4865625 -78.90234375 52.578125 C-82.21988259 43.78464857 -81.66419771 35.28852261 -78.12890625 26.62890625 C-71.85307923 13.47117546 -61.46251447 5.06617154 -47.875 0 C-31.60581383 -4.78905063 -16.36273518 -2.92975871 0 0 Z " fill="#141414" transform="translate(107.875,58)"/>
<path d="M0 0 C2.4375 1.4375 2.4375 1.4375 4 4 C5.50640452 14.54483162 0.30171445 24.16380924 -5 33 C-5 33.66 -5 34.32 -5 35 C-2.62102997 35.04510361 -2.62102997 35.04510361 0 34 C1.43589798 31.68929022 2.73088518 29.40017279 4 27 C4.81036338 25.52876903 5.62294491 24.0587581 6.4375 22.58984375 C7.72383322 20.25589865 9.00887053 17.92130456 10.2890625 15.58398438 C17.60928923 2.32449394 17.60928923 2.32449394 22 0 C25.11189466 -0.24895157 27.19084526 -0.40457737 30 1 C30.59355614 3.64860427 30.74209269 6.29197322 31 9 C31.49628906 8.4946875 31.99257813 7.989375 32.50390625 7.46875 C38.08304094 2.13310696 38.08304094 2.13310696 42.875 1.4375 C46 2 46 2 48 4 C48.88571218 9.94692467 46.8983703 13.83244554 44.30859375 19.13671875 C42.67631871 22.70823398 41.60432401 26.31894521 40.578125 30.1015625 C40 32 40 32 39 33 C38.76924918 34.34747084 38.58846937 35.70377565 38.4375 37.0625 C38.293125 38.361875 38.14875 39.66125 38 41 C38.94875 40.34 39.8975 39.68 40.875 39 C44 37 44 37 46 37 C46.28875 36.38125 46.5775 35.7625 46.875 35.125 C48 33 48 33 50 31 C50.69895607 29.37969275 51.39399024 27.75756191 52.06738281 26.12646484 C53.92261708 21.89633644 56.17001477 17.867885 58.375 13.8125 C58.84421875 12.92369141 59.3134375 12.03488281 59.796875 11.11914062 C62.29839475 6.52035224 64.37971396 2.76755902 69 0 C72.16545451 -0.31033868 74.14675563 -0.42662219 77 1 C77.91811976 9.56911779 74.96646995 16.21265651 71.80932617 23.99853516 C68.58998123 31.7181348 68.58998123 31.7181348 68 40 C74.31897361 38.46812761 77.93377779 33.3610999 81.19287109 28.05957031 C83.90305931 23.43128931 86.46940174 18.72837407 89 14 C89.66 14 90.32 14 91 14 C90.43704646 18.73970565 88.31554052 22.37107411 85.875 26.375 C85.47192627 27.04039795 85.06885254 27.7057959 84.65356445 28.39135742 C80.85592339 34.50014934 76.81278904 40.13284168 70 43 C63.74492875 43.54869046 63.74492875 43.54869046 61.31420898 41.75830078 C58.70749092 38.27073187 59.44866892 34.13322275 60 30 C61.18231093 25.90764978 62.76666202 22.03967958 64.4375 18.125 C65.27131238 16.10750604 66.103416 14.08930479 66.93359375 12.0703125 C67.4913147 10.75184326 67.4913147 10.75184326 68.06030273 9.40673828 C68.89193563 7.27677282 69.50877608 5.22942576 70 3 C66.06435902 6.54603893 64.10105512 9.49563988 62.25 14.4375 C57.95790381 25.17562772 51.76579707 37.61710146 41 43 C33.90140845 43.45070423 33.90140845 43.45070423 31 42 C28.97256304 37.94512609 29.44749161 33.9272019 30.65625 29.7109375 C33.01551433 23.46702241 36.24413593 17.69029374 39.51171875 11.8828125 C40.7380107 9.50747534 41.52794973 7.60571748 42 5 C31.08759066 8.99234488 26.50497265 21.16036925 21.87695312 30.98876953 C20.95220943 33.10960433 20.16556578 35.25395142 19.390625 37.43359375 C18 41 18 41 16 42 C14.00039988 42.039992 11.99952758 42.04346799 10 42 C10.62162129 38.39281702 11.60073693 35.22069597 12.99609375 31.83984375 C13.38990234 30.88142578 13.78371094 29.92300781 14.18945312 28.93554688 C14.60130859 27.94619141 15.01316406 26.95683594 15.4375 25.9375 C15.84548828 24.94427734 16.25347656 23.95105469 16.67382812 22.92773438 C19.71322071 15.56476866 19.71322071 15.56476866 21.10717773 12.81958008 C22.12286141 10.74960731 22.39635178 9.03648218 22.625 6.75 C22.810625 4.89375 22.810625 4.89375 23 3 C19.00079933 6.44375613 17.10447552 9.56175876 15.0859375 14.40625 C6.85142857 34.07428571 6.85142857 34.07428571 -1 38 C-6.53846154 38.23076923 -6.53846154 38.23076923 -9 37 C-9.33 37.99 -9.66 38.98 -10 40 C-13.94630826 43.13383303 -17.04234439 43.45904219 -22 43 C-25 41 -25 41 -26 38 C-27.18492943 27.18328703 -24.3328672 18.38072089 -18.0625 9.5625 C-12.98808878 3.26865662 -8.41266371 -0.72522963 0 0 Z " fill="#D4D4D4" transform="translate(409,103)"/>
<path d="M0 0 C2.4375 1.6875 2.4375 1.6875 4.4375 4.6875 C4.5625 7.375 4.5625 7.375 4.4375 9.6875 C1.56247637 9.27678234 -0.3321767 8.84543598 -2.75 7.1875 C-6.89405735 4.97733608 -10.88605869 4.4476825 -15.5625 4.6875 C-20.65853146 7.00387794 -22.43208508 9.62686216 -24.5625 14.6875 C-26.01686406 24.84748648 -23.49853153 33.75394387 -20.125 43.25 C-19.29100348 45.68813072 -18.45889348 48.12690778 -17.62890625 50.56640625 C-17.25709229 51.6241626 -16.88527832 52.68191895 -16.50219727 53.77172852 C-12.82611486 65.17818532 -12.29008792 81.45304368 -17.30078125 92.44140625 C-19.51796901 96.38841232 -21.77094693 100.11485544 -24.5625 103.6875 C-25.04074219 104.30367188 -25.51898438 104.91984375 -26.01171875 105.5546875 C-33.14665042 113.64214153 -44.94855157 118.76786506 -55.59545898 119.90454102 C-57.67308603 120.02532463 -59.73143655 120.06707482 -61.8125 120.0625 C-62.54686279 120.06161377 -63.28122559 120.06072754 -64.0378418 120.05981445 C-70.89978532 119.91244687 -79.11588415 118.99214998 -84.26953125 114.05078125 C-88.65836931 111.44140394 -94.1597748 112.58803602 -99.12109375 112.8046875 C-104.43949631 112.94735702 -107.91400751 112.6330794 -112.5625 109.6875 C-112.5625 109.0275 -112.5625 108.3675 -112.5625 107.6875 C-111.469375 108.0175 -110.37625 108.3475 -109.25 108.6875 C-103.93377171 110.02844488 -96.60946647 111.21098323 -91.5625 108.6875 C-92.17738281 107.70523438 -92.17738281 107.70523438 -92.8046875 106.703125 C-96.45399857 100.52199524 -98.37587741 95.25215342 -99.23828125 88.12109375 C-99.42872362 85.6840701 -99.42872362 85.6840701 -100.5625 83.6875 C-99.5725 83.6875 -98.5825 83.6875 -97.5625 83.6875 C-97.43875 82.553125 -97.315 81.41875 -97.1875 80.25 C-96.98125 79.074375 -96.775 77.89875 -96.5625 76.6875 C-95.5725 76.1925 -95.5725 76.1925 -94.5625 75.6875 C-94.5625 78.6575 -94.5625 81.6275 -94.5625 84.6875 C-88.2925 85.0175 -82.0225 85.3475 -75.5625 85.6875 C-77.5625 87.6875 -77.5625 87.6875 -81.2578125 87.8828125 C-82.73450108 87.869509 -84.21112358 87.84564835 -85.6875 87.8125 C-86.44160156 87.80347656 -87.19570313 87.79445313 -87.97265625 87.78515625 C-89.83607254 87.7615687 -91.69932593 87.72569719 -93.5625 87.6875 C-93.83963662 94.39330196 -93.83963662 94.39330196 -91.3125 100.5 C-90.68601562 101.59248047 -90.68601562 101.59248047 -90.046875 102.70703125 C-88.4080662 104.89354721 -86.88767704 106.25662182 -84.5625 107.6875 C-81.39517579 107.93836724 -81.39517579 107.93836724 -78.5625 107.6875 C-78.5625 108.6775 -78.5625 109.6675 -78.5625 110.6875 C-79.5525 111.1825 -79.5525 111.1825 -80.5625 111.6875 C-70.26810133 115.69087726 -61.98504555 115.32231113 -51.5625 111.6875 C-39.22356392 105.64393947 -32.22643702 94.52461228 -27.8125 81.9375 C-22.96540931 67.17078185 -25.06322299 51.17820715 -28.76391602 36.46044922 C-30.90418483 27.78545515 -32.67716195 18.72491079 -29 10.1875 C-22.70146785 -0.22071271 -11.43883419 -4.21430733 0 0 Z " fill="#D5D5D5" transform="translate(391.5625,38.3125)"/>
<path d="M0 0 C0.43828125 0.36351563 0.8765625 0.72703125 1.328125 1.1015625 C14.69328263 11.69589477 27.55458997 14.24159517 44 15 C36.23080273 27.31344473 25.9469137 36.23263717 11.8125 40.375 C3.9068823 41.6710029 -2.25278962 41.80683615 -9 37 C-12.97080116 33.22626093 -15.10353859 29.50530319 -15.4375 24 C-15.31859545 16.68737032 -11.5904159 10.67044501 -6.59765625 5.5234375 C-4.44962012 3.60276064 -2.27648771 1.76554269 0 0 Z " fill="#151515" transform="translate(32,123)"/>
<path d="M0 0 C-1.67491831 4.88036541 -4.36791961 8.99152948 -7.125 13.3125 C-7.82689453 14.42334961 -7.82689453 14.42334961 -8.54296875 15.55664062 C-9.69164196 17.37341968 -10.84532369 19.18703037 -12 21 C-9.03 21.33 -6.06 21.66 -3 22 C-3 22.66 -3 23.32 -3 24 C-3.73605469 23.96777344 -4.47210938 23.93554688 -5.23046875 23.90234375 C-11.00228286 23.83881344 -11.00228286 23.83881344 -15.703125 26.71875 C-17.02608993 29.09673759 -18.03832736 31.45462042 -19 34 C-19.36609375 34.84949219 -19.7321875 35.69898438 -20.109375 36.57421875 C-23.30240234 44.12873633 -25.2887033 50.77195602 -25 59 C-20.58309591 58.34564384 -17.50642113 55.95886893 -14.80102539 52.44091797 C-13.61468098 50.67233251 -12.48554776 48.87958591 -11.375 47.0625 C-10.9934375 46.45470703 -10.611875 45.84691406 -10.21875 45.22070312 C-8.53553783 42.53046574 -6.90311469 39.82712171 -5.3515625 37.05859375 C-4.68253906 36.03958984 -4.68253906 36.03958984 -4 35 C-3.34 35 -2.68 35 -2 35 C-5.19866246 45.46552668 -11.3319674 56.45873797 -21.01171875 62.19140625 C-24.0899647 63.44326659 -26.72819396 63.302945 -30 63 C-32.56616632 59.15075052 -32.55097676 56.5650696 -33 52 C-33.52787109 52.68835938 -33.52787109 52.68835938 -34.06640625 53.390625 C-37.98398387 58.2594682 -41.663529 62.12277495 -48.046875 63.4140625 C-51.82208644 63.68372046 -53.76662877 63.1711389 -56.8125 60.9375 C-59.24579132 57.66993737 -60.58313402 54.80316659 -62 51 C-62.59167969 51.62648437 -63.18335938 52.25296875 -63.79296875 52.8984375 C-64.58316406 53.71570313 -65.37335938 54.53296875 -66.1875 55.375 C-67.35345703 56.59316406 -67.35345703 56.59316406 -68.54296875 57.8359375 C-71.02736241 60.0240998 -72.7906057 61.21209632 -76 62 C-76.99 61.34 -77.98 60.68 -79 60 C-77.824375 59.505 -76.64875 59.01 -75.4375 58.5 C-66.22867597 53.85870418 -62.07613582 44.89225834 -57.828125 35.97851562 C-54.41057701 29.10458387 -50.24151001 23.1395593 -43 20 C-39.62411098 19.50106823 -36.18607235 19.16866618 -33.2890625 21.19921875 C-30.59456536 24.9633496 -31.287014 29.62273346 -32 34 C-34.05069568 38.8067725 -36.98753938 42.67787072 -41.375 45.5625 C-45.6830995 47.27088428 -48.41892456 47.32147898 -53 47 C-53.05416188 48.60379341 -53.09286638 50.20811406 -53.125 51.8125 C-53.14820313 52.70582031 -53.17140625 53.59914062 -53.1953125 54.51953125 C-53.18285827 57.25402714 -53.18285827 57.25402714 -51 60 C-44.80263866 59.40977511 -40.82760733 57.1242347 -36.76171875 52.3984375 C-30.56521624 43.36624741 -25.69412141 33.88761743 -21 24 C-22.32 23.67 -23.64 23.34 -25 23 C-24 22 -24 22 -21.4375 21.9375 C-20.2309375 21.9684375 -20.2309375 21.9684375 -19 22 C-18.73574219 21.15953125 -18.47148437 20.3190625 -18.19921875 19.453125 C-16.92513767 15.78443551 -15.46045935 12.26167862 -13.8125 8.75 C-13.54630859 8.12609375 -13.28011719 7.5021875 -13.00585938 6.859375 C-11.27439869 3.21584775 -10.2433522 2.09744796 -6.44921875 0.578125 C-3 0 -3 0 0 0 Z " fill="#D6D6D6" transform="translate(259,83)"/>
<path d="M0 0 C-2.11850657 5.5341967 -4.92193797 10.61507381 -7.75 15.8125 C-8.26304688 16.77220703 -8.77609375 17.73191406 -9.3046875 18.72070312 C-16.27951874 31.55754706 -16.27951874 31.55754706 -20 35 C-23.48523786 35.82402911 -26.46981089 35.47228206 -30 35 C-31.07765625 34.92394531 -32.1553125 34.84789062 -33.265625 34.76953125 C-43.24356682 33.81871841 -54.22407413 30.74485624 -60.90234375 22.765625 C-61.59457031 21.85296875 -62.28679688 20.9403125 -63 20 C-60.79283537 18.72710095 -58.58432515 17.4566395 -56.375 16.1875 C-55.75753906 15.83107422 -55.14007813 15.47464844 -54.50390625 15.10742188 C-43.85794151 9 -43.85794151 9 -41 9 C-39.9921875 10.609375 -39.9921875 10.609375 -38.875 12.75 C-36.05791433 17.52128024 -33.06125441 18.94118465 -28 21 C-28 20.34 -28 19.68 -28 19 C-28.721875 18.79375 -29.44375 18.5875 -30.1875 18.375 C-34.0414853 16.49082941 -35.58339918 14.55382473 -38 11 C-37.96484375 8.93359375 -37.96484375 8.93359375 -37 7 C-26.68074857 1.65127805 -11.51639019 0 0 0 Z " fill="#151515" transform="translate(98,101)"/>
<path d="M0 0 C8.31189994 2.82290941 15.0303998 7.31925276 19.3125 15.125 C20.52671787 19.05199578 21.38283183 23.09314853 20.3125 27.125 C13.91815173 34.10564955 0.55181359 36.83077439 -8.50390625 37.2578125 C-9.41011719 37.25523438 -10.31632812 37.25265625 -11.25 37.25 C-12.61318359 37.25386719 -12.61318359 37.25386719 -14.00390625 37.2578125 C-16.65895179 37.12641287 -19.09910752 36.71476031 -21.6875 36.125 C-21.05367069 23.65969023 -16.39688739 13.08181317 -7.6875 4.125 C-3.16182484 0.14706162 -3.16182484 0.14706162 0 0 Z " fill="#151515" transform="translate(318.6875,86.875)"/>
<path d="M0 0 C-0.33 0.99 -0.66 1.98 -1 3 C-3.39616244 2.71086101 -5.79194397 2.41909607 -8.1875 2.125 C-8.91565918 2.03621582 -9.64381836 1.94743164 -10.39404297 1.85595703 C-14.82811912 1.30472493 -19.22125913 0.63708124 -23.625 -0.125 C-42.3553657 -3.0083691 -60.29843648 -0.10937573 -75.88671875 11.0703125 C-84.26718348 18.06029654 -90.12731627 27.45042661 -91.25 38.44921875 C-91.58649511 45.82056471 -89.96511062 52.2581609 -87 59 C-86.34 59.66 -85.68 60.32 -85 61 C-83.98679687 60.36771484 -83.98679687 60.36771484 -82.953125 59.72265625 C-82.06109375 59.17480469 -81.1690625 58.62695312 -80.25 58.0625 C-78.92742187 57.24458984 -78.92742187 57.24458984 -77.578125 56.41015625 C-75.31600083 55.17284288 -73.51433675 54.46409487 -71 54 C-71.18359375 55.8046875 -71.18359375 55.8046875 -72 58 C-74.28515625 59.6328125 -74.28515625 59.6328125 -77.0625 61.125 C-78.73732797 62.03170911 -80.39239523 62.97883545 -82 64 C-82 64.66 -82 65.32 -82 66 C-73.0527784 74.53277264 -62.95893536 76.70714212 -51 78 C-54.06117568 80.62386487 -54.73173127 81 -59 81 C-68.28464446 79.5645451 -76.13933905 75.48724392 -83.16015625 69.35546875 C-85.02167611 67.70342964 -85.02167611 67.70342964 -88 68 C-94.49107976 71.72490533 -98.33706423 78.20101507 -101 85 C-102.07849752 90.65769192 -101.25471627 95.1740414 -98 100 C-94.91114228 102.92628626 -92.01549231 104.62325978 -88 106 C-88.33 106.99 -88.66 107.98 -89 109 C-95.36570608 108.74017526 -98.65586208 106.60776634 -103 102 C-106.53647717 96.69528425 -105.8907466 89.20893682 -105 83 C-102.45471215 75.82266257 -96.87929185 69.7405101 -91 65 C-90.34 65 -89.68 65 -89 65 C-89.49371094 64.03578125 -89.98742187 63.0715625 -90.49609375 62.078125 C-91.14344237 60.80219148 -91.79056599 59.52614379 -92.4375 58.25 C-92.76298828 57.61578125 -93.08847656 56.9815625 -93.42382812 56.328125 C-97.91671699 47.43498416 -98.70983649 37.14173265 -96.0234375 27.4921875 C-93.89405745 22.27977865 -91.39444035 17.48942111 -88 13 C-87.46375 12.195625 -86.9275 11.39125 -86.375 10.5625 C-63.50357039 -14.11456879 -28.85772356 -6.40714736 0 0 Z " fill="#D3D3D3" transform="translate(119,57)"/>
<path d="M0 0 C2.4375 1.4375 2.4375 1.4375 4 4 C5.50640452 14.54483162 0.30171445 24.16380924 -5 33 C-5 33.66 -5 34.32 -5 35 C-2.62102997 35.04510361 -2.62102997 35.04510361 0 34 C1.43589798 31.68929022 2.73088518 29.40017279 4 27 C4.81036338 25.52876903 5.62294491 24.0587581 6.4375 22.58984375 C7.72383322 20.25589865 9.00887053 17.92130456 10.2890625 15.58398438 C12.68390048 11.24609533 15.18224956 7.07660655 18 3 C18.6875 4.6875 18.6875 4.6875 19 7 C17.75 9.3125 17.75 9.3125 16 12 C15.28419465 13.65936694 14.56944467 15.31922913 13.8671875 16.984375 C6.42222222 34.28888889 6.42222222 34.28888889 -1 38 C-6.53846154 38.23076923 -6.53846154 38.23076923 -9 37 C-9.33 37.99 -9.66 38.98 -10 40 C-13.94630826 43.13383303 -17.04234439 43.45904219 -22 43 C-25 41 -25 41 -26 38 C-27.18492943 27.18328703 -24.3328672 18.38072089 -18.0625 9.5625 C-12.98808878 3.26865662 -8.41266371 -0.72522963 0 0 Z " fill="#D3D3D3" transform="translate(409,103)"/>
<path d="M0 0 C3.05414743 3.91557363 3.30200133 6.21168633 3.01953125 11.0859375 C1.3426193 19.84189386 -3.86222193 28.25362231 -10.5625 34.125 C-11.2225 34.125 -11.8825 34.125 -12.5625 34.125 C-12.70945312 33.4959375 -12.85640625 32.866875 -13.0078125 32.21875 C-15.22165657 23.77051744 -19.09902403 16.98493784 -26.5625 12.125 C-29.52123232 10.68561671 -32.51808733 9.37194898 -35.5625 8.125 C-28.16214013 -1.12544984 -10.67366833 -6.96437934 0 0 Z " fill="#151515" transform="translate(354.5625,76.875)"/>
<path d="M0 0 C2.5 1.5 2.5 1.5 4 4 C5.05036111 10.88570061 3.01176848 15.42396106 -1 21 C-5.8113433 26.25891012 -10.18758185 26.98734325 -17 28 C-17 31.63 -17 35.26 -17 39 C-14.69 39.66 -12.38 40.32 -10 41 C-10.33 41.66 -10.66 42.32 -11 43 C-18.01398601 43.71328671 -18.01398601 43.71328671 -21.9375 40.875 C-25.5314107 35.67425551 -25.42692413 29.08043464 -25 23 C-22.71648732 13.82245379 -17.79629767 6.93542373 -10.5625 1 C-6.72879187 -0.49608122 -4.12284931 -0.45809437 0 0 Z " fill="#D7D7D7" transform="translate(193,103)"/>
<path d="M0 0 C1 3 1 3 0.14453125 5.3046875 C-6.14672385 17.44441142 -13.90612381 23.77267242 -27 28 C-28.66119391 28.359616 -30.32694173 28.70039205 -32 29 C-41.19505946 18.94197379 -41.19505946 18.94197379 -41.0703125 11.3046875 C-41.06016113 10.49757324 -41.05000977 9.69045898 -41.03955078 8.85888672 C-41.02649902 8.2454541 -41.01344727 7.63202148 -41 7 C-39.73027344 7.04640625 -38.46054687 7.0928125 -37.15234375 7.140625 C-23.62107556 7.48240367 -12.18698327 6.42485976 0 0 Z " fill="#151515" transform="translate(338,118)"/>
<path d="M0 0 C-1.67491831 4.88036541 -4.36791961 8.99152948 -7.125 13.3125 C-7.59292969 14.05306641 -8.06085938 14.79363281 -8.54296875 15.55664062 C-9.69164196 17.37341968 -10.84532369 19.18703037 -12 21 C-9.03 21.33 -6.06 21.66 -3 22 C-3 22.66 -3 23.32 -3 24 C-3.73605469 23.96777344 -4.47210938 23.93554688 -5.23046875 23.90234375 C-11.00228286 23.83881344 -11.00228286 23.83881344 -15.703125 26.71875 C-17.02608993 29.09673759 -18.03832736 31.45462042 -19 34 C-19.36609375 34.84949219 -19.7321875 35.69898438 -20.109375 36.57421875 C-23.30240234 44.12873633 -25.2887033 50.77195602 -25 59 C-20.58309591 58.34564384 -17.50642113 55.95886893 -14.80102539 52.44091797 C-13.61468098 50.67233251 -12.48554776 48.87958591 -11.375 47.0625 C-10.9934375 46.45470703 -10.611875 45.84691406 -10.21875 45.22070312 C-8.53553783 42.53046574 -6.90311469 39.82712171 -5.3515625 37.05859375 C-4.68253906 36.03958984 -4.68253906 36.03958984 -4 35 C-3.34 35 -2.68 35 -2 35 C-5.19866246 45.46552668 -11.3319674 56.45873797 -21.01171875 62.19140625 C-24.0899647 63.44326659 -26.72819396 63.302945 -30 63 C-32.56616632 59.15075052 -32.55097676 56.5650696 -33 52 C-33.35191406 52.45890625 -33.70382813 52.9178125 -34.06640625 53.390625 C-37.64388465 57.83678615 -40.84760038 60.5228848 -46 63 C-46.66 63 -47.32 63 -48 63 C-48 62.01 -48 61.02 -48 60 C-46.865625 59.5875 -45.73125 59.175 -44.5625 58.75 C-32.27835765 52.44601131 -26.56769269 35.81929095 -21 24 C-22.32 23.67 -23.64 23.34 -25 23 C-24 22 -24 22 -21.4375 21.9375 C-20.2309375 21.9684375 -20.2309375 21.9684375 -19 22 C-18.73574219 21.15953125 -18.47148437 20.3190625 -18.19921875 19.453125 C-16.92513767 15.78443551 -15.46045935 12.26167862 -13.8125 8.75 C-13.54630859 8.12609375 -13.28011719 7.5021875 -13.00585938 6.859375 C-11.27439869 3.21584775 -10.2433522 2.09744796 -6.44921875 0.578125 C-3 0 -3 0 0 0 Z " fill="#D5D5D5" transform="translate(259,83)"/>
<path d="M0 0 C0.66 0.33 1.32 0.66 2 1 C2.91811976 9.56911779 -0.03353005 16.21265651 -3.19067383 23.99853516 C-6.41001877 31.7181348 -6.41001877 31.7181348 -7 40 C-0.68102639 38.46812761 2.93377779 33.3610999 6.19287109 28.05957031 C8.90305931 23.43128931 11.46940174 18.72837407 14 14 C14.66 14 15.32 14 16 14 C15.43704646 18.73970565 13.31554052 22.37107411 10.875 26.375 C10.47192627 27.04039795 10.06885254 27.7057959 9.65356445 28.39135742 C5.85592339 34.50014934 1.81278904 40.13284168 -5 43 C-11.25507125 43.54869046 -11.25507125 43.54869046 -13.68579102 41.75830078 C-16.29250908 38.27073187 -15.55133108 34.13322275 -15 30 C-13.81768907 25.90764978 -12.23333798 22.03967958 -10.5625 18.125 C-9.72868762 16.10750604 -8.896584 14.08930479 -8.06640625 12.0703125 C-7.69459229 11.19133301 -7.32277832 10.31235352 -6.93969727 9.40673828 C-6.10806437 7.27677282 -5.49122392 5.22942576 -5 3 C-8.93564098 6.54603893 -10.89894488 9.49563988 -12.75 14.4375 C-16.97340145 25.00376462 -22.63601165 35.22605098 -32 42 C-32.99 41.34 -33.98 40.68 -35 40 C-31.25 37 -31.25 37 -29 37 C-28.71125 36.38125 -28.4225 35.7625 -28.125 35.125 C-27 33 -27 33 -25 31 C-24.30104393 29.37969275 -23.60600976 27.75756191 -22.93261719 26.12646484 C-21.07738292 21.89633644 -18.82998523 17.867885 -16.625 13.8125 C-15.92117188 12.47928711 -15.92117188 12.47928711 -15.203125 11.11914062 C-11.51922189 4.34666129 -8.51125749 -0.94569528 0 0 Z " fill="#D3D3D3" transform="translate(484,103)"/>
<path d="M0 0 C-0.65061095 1.67299959 -1.32033324 3.33859237 -2 5 C-2.21011719 5.69609375 -2.42023438 6.3921875 -2.63671875 7.109375 C-4 9 -4 9 -7.02734375 9.6875 C-8.31769531 9.790625 -9.60804687 9.89375 -10.9375 10 C-17.41444367 10.62147585 -23.70069407 11.63162804 -30.0625 13 C-30.84681396 13.16628906 -31.63112793 13.33257812 -32.43920898 13.50390625 C-37.0184345 14.49877274 -41.50855166 15.6638985 -46 17 C-45.90526088 12.35778316 -45.27354283 9.80463495 -42.0625 6.375 C-30.2857571 -4.33990542 -14.62071336 -5.10024885 0 0 Z " fill="#161616" transform="translate(105,89)"/>
<path d="M0 0 C-0.845625 0.94875 -1.69125 1.8975 -2.5625 2.875 C-10.95711901 12.73818121 -16.18902652 22.35061936 -19 35 C-22.81829114 34.12724774 -24.63755833 32.56320189 -26.8125 29.4375 C-29.4121417 24.91067913 -29.81379971 21.11399133 -29 16 C-27.20170062 9.48116474 -23.4770814 5.70873924 -18 2 C-11.79084249 -1.20898052 -6.7903978 -1.18562501 0 0 Z " fill="#161616" transform="translate(312,86)"/>
<path d="M0 0 C2.97 0 5.94 0 9 0 C11.13696498 4.27392996 10.60932915 9.12645524 9.1640625 13.5703125 C5.31662142 22.01402546 -0.65896913 27.15221641 -8.84765625 31.2734375 C-11.84765681 32.28614186 -14.86545499 32.61617816 -18 33 C-17.53851563 32.20980469 -17.07703125 31.41960937 -16.6015625 30.60546875 C-10.78556782 20.54816569 -5.36156287 10.30562699 0 0 Z " fill="#191919" transform="translate(108,100)"/>
<path d="M0 0 C2.125 0.9375 2.125 0.9375 4 2 C4.21755666 7.4389165 4.10428384 11.87080814 2 17 C0.329375 17.12375 0.329375 17.12375 -1.375 17.25 C-4.97342034 17.57416539 -4.97342034 17.57416539 -6.23828125 19.67578125 C-7.19269549 22.5879683 -7.01642402 24.88633496 -6.8125 27.9375 C-6.69107648 34.5591294 -6.69107648 34.5591294 -9.25 37.3125 C-12 39 -12 39 -14.25 38.9375 C-16 38 -16 38 -17 36 C-18.15215854 25.40014147 -12.72943949 14.20082067 -6.41796875 5.92578125 C-2.53413043 1.26706522 -2.53413043 1.26706522 0 0 Z " fill="#181818" transform="translate(406,105)"/>
<path d="M0 0 C-0.33 0.99 -0.66 1.98 -1 3 C-1.6290625 3.09796875 -2.258125 3.1959375 -2.90625 3.296875 C-11.35851468 4.77347546 -17.62933316 7.28955478 -23.87109375 13.2421875 C-25.45701581 15.71161632 -25.6510978 18.12055425 -26 21 C-25.44538086 20.84329834 -24.89076172 20.68659668 -24.31933594 20.52514648 C-21.79893139 19.8191486 -19.27463692 19.12820255 -16.75 18.4375 C-15.87730469 18.19064453 -15.00460938 17.94378906 -14.10546875 17.68945312 C-12.83896484 17.34624023 -12.83896484 17.34624023 -11.546875 16.99609375 C-10.77182617 16.78138428 -9.99677734 16.5666748 -9.19824219 16.34545898 C-6.75801356 15.96197126 -5.30479715 16.13952202 -3 17 C-2.34 17.66 -1.68 18.32 -1 19 C-1.54938232 19.11069824 -2.09876465 19.22139648 -2.66479492 19.33544922 C-5.17337533 19.84377727 -7.68042089 20.35932071 -10.1875 20.875 C-11.48397461 21.13603516 -11.48397461 21.13603516 -12.80664062 21.40234375 C-17.05271884 22.28084269 -21.03624428 23.17814954 -25 25 C-25.11635105 27.29781554 -25.11635105 27.29781554 -24 30 C-21.99742672 31.73161199 -19.91753482 33.20079842 -17.71484375 34.66796875 C-17.14894531 35.10753906 -16.58304688 35.54710937 -16 36 C-16 36.66 -16 37.32 -16 38 C-20.42350331 37.49445676 -22.78071602 36.04984798 -26 33 C-29 28.65517241 -29 28.65517241 -29 26 C-31.97 27.32 -34.94 28.64 -38 30 C-38.33 29.34 -38.66 28.68 -39 28 C-36.47043472 24.9083091 -33.77545388 24.09068668 -30 23 C-30.185625 21.7625 -30.185625 21.7625 -30.375 20.5 C-29.74725202 14.64101888 -26.35465486 10.92968953 -21.87890625 7.26171875 C-14.90423275 2.39032634 -8.56689485 -0.53543093 0 0 Z " fill="#CCCCCC" transform="translate(86,84)"/>
<path d="M0 0 C0.99 0.33 1.98 0.66 3 1 C3.82958204 8.46623836 1.57695317 13.11237387 -3 19 C-6.21338018 22.07161341 -8.43564704 23 -13 23 C-12.66714155 15.51068477 -9.30645649 8.76745282 -4.375 3.1484375 C-2.8125 1.75 -2.8125 1.75 0 0 Z " fill="#1B1B1B" transform="translate(190,105)"/>
<path d="M0 0 C2.1875 0.3125 2.1875 0.3125 4 1 C4.94176545 9.63284992 1.21569199 13.98038501 -4 20.5 C-6.59442056 22.44581542 -8.80979379 22.70998125 -12 23 C-13 21 -13 21 -12.43359375 18.8984375 C-9.59908599 11.71768452 -5.91597445 5.12081659 0 0 Z " fill="#191919" transform="translate(220,105)"/>
<path d="M0 0 C0.6875 1.6875 0.6875 1.6875 1 4 C-0.25 6.3125 -0.25 6.3125 -2 9 C-2.71580535 10.65936694 -3.43055533 12.31922913 -4.1328125 13.984375 C-11.57777778 31.28888889 -11.57777778 31.28888889 -19 35 C-24.53846154 35.23076923 -24.53846154 35.23076923 -27 34 C-27.33 34.99 -27.66 35.98 -28 37 C-28.99 36.34 -29.98 35.68 -31 35 C-29.68 33.68 -28.36 32.36 -27 31 C-27 31.66 -27 32.32 -27 33 C-26.34 33 -25.68 33 -25 33 C-24.67 32.34 -24.34 31.68 -24 31 C-23.443125 31.268125 -22.88625 31.53625 -22.3125 31.8125 C-19.83122589 32.26321105 -19.83122589 32.26321105 -17.625 30.3125 C-14.4785512 26.83132261 -12.69346362 22.62186132 -10.6875 18.421875 C-8.81962386 14.63423727 -6.79007954 10.97327903 -4.6875 7.3125 C-4.33776123 6.70027588 -3.98802246 6.08805176 -3.62768555 5.45727539 C-1.13730822 1.13730822 -1.13730822 1.13730822 0 0 Z " fill="#CACACA" transform="translate(427,106)"/>
<path d="M0 0 C0.6875 1.6875 0.6875 1.6875 1 4 C0.05184571 5.69669715 -0.96344932 7.35581617 -2 9 C-2.55832223 10.47296066 -3.09781132 11.95311161 -3.625 13.4375 C-7.47074827 23.26552337 -13.39190715 32.772869 -22 39 C-22.99 38.34 -23.98 37.68 -25 37 C-21.25 34 -21.25 34 -19 34 C-18.71125 33.38125 -18.4225 32.7625 -18.125 32.125 C-17 30 -17 30 -15 28 C-14.30839418 26.38342443 -13.62017806 24.7653047 -12.95019531 23.13964844 C-11.03551737 18.82817941 -8.66485613 14.7455484 -6.375 10.625 C-5.62089844 9.25408203 -5.62089844 9.25408203 -4.8515625 7.85546875 C-1.13909365 1.13909365 -1.13909365 1.13909365 0 0 Z " fill="#BFBFBF" transform="translate(474,106)"/>
<path d="M0 0 C3 1 3 1 4 3 C4.66 2.67 5.32 2.34 6 2 C5.67698799 8.13722814 2.6043679 13.16230728 -1 18 C-1.66 18 -2.32 18 -3 18 C-5.48250306 14.27624541 -5.57455357 10.32201494 -5 6 C-2.86111111 1.43055556 -2.86111111 1.43055556 0 0 Z " fill="#D6D6D6" transform="translate(403,121)"/>
<path d="M0 0 C1.5 1 1.5 1 3 3 C3.95356755 9.91336476 2.0300772 14.39851339 -2 20 C-6.70523183 25.14292781 -11.34293 26.11853026 -18 27 C-18.33 26.34 -18.66 25.68 -19 25 C-18.34773437 24.81566406 -17.69546875 24.63132813 -17.0234375 24.44140625 C-9.68887642 22.00737049 -6.55014207 18.78588041 -3 12 C-1.79727181 9.59454362 -1.89928528 8.05003047 -1.9375 5.375 C-1.94652344 4.55773437 -1.95554688 3.74046875 -1.96484375 2.8984375 C-1.97644531 2.27195312 -1.98804688 1.64546875 -2 1 C-1.34 0.67 -0.68 0.34 0 0 Z " fill="#CCCCCC" transform="translate(194,104)"/>
<path d="M0 0 C3 1 3 1 4.421875 3.14453125 C5.07929688 4.46517578 5.07929688 4.46517578 5.75 5.8125 C6.42289062 7.12154297 6.42289062 7.12154297 7.109375 8.45703125 C8.10509569 11.30007585 7.98175711 12.22667484 7 15 C6.83564453 16.08087891 6.83564453 16.08087891 6.66796875 17.18359375 C5.82698736 21.12868533 4.9887774 23.34292109 1.5546875 25.625 C-5.39114481 28.67173584 -12.49658727 30.10863714 -20 31 C-20.33 30.01 -20.66 29.02 -21 28 C-20.20078125 27.85304688 -19.4015625 27.70609375 -18.578125 27.5546875 C-10.29143074 25.86233445 -3.37930486 23.10847784 4 19 C4.3884811 11.61885908 3.15940249 7.23910373 -1 1 C-0.67 0.67 -0.34 0.34 0 0 Z " fill="#CDCDCD" transform="translate(334,95)"/>
<path d="M0 0 C0.66 0.33 1.32 0.66 2 1 C1.67995042 3.96045858 1.40971004 5.57511551 -0.6875 7.75 C-3.4498306 9.24315168 -5.89686272 9.64737076 -9 10 C-9 9.67 -9 9.34 -9 9 C-11.97 8.505 -11.97 8.505 -15 8 C-14.34 6.68 -13.68 5.36 -13 4 C-13.66 3.67 -14.32 3.34 -15 3 C-9.95665982 -0.10359396 -5.77058356 -0.60014069 0 0 Z " fill="#B6B6B6" transform="translate(148,51)"/>
<path d="M0 0 C3.63838073 2.04104285 4.78742464 3.62437516 6.5625 7.4375 C8.17822991 16.77282838 5.29199373 23.49870696 0.5625 31.4375 C-2.4375 31.4375 -2.4375 31.4375 -4.4375 30.4375 C-3.93089844 29.65826172 -3.93089844 29.65826172 -3.4140625 28.86328125 C-2.96804688 28.16589844 -2.52203125 27.46851562 -2.0625 26.75 C-1.62164062 26.06550781 -1.18078125 25.38101563 -0.7265625 24.67578125 C2.68667125 18.74916628 3.60856544 13.21600405 2.5625 6.4375 C0.41695315 3.76922123 0.41695315 3.76922123 -2.4375 2.4375 C-3.4275 1.7775 -4.4175 1.1175 -5.4375 0.4375 C-2.4375 -0.5625 -2.4375 -0.5625 0 0 Z " fill="#C1C1C1" transform="translate(353.4375,73.5625)"/>
<path d="M0 0 C-0.05800781 0.9178125 -0.11601562 1.835625 -0.17578125 2.78125 C-0.42928955 9.67667588 -0.53174693 14.80060622 3.515625 20.546875 C5.20018799 22.19597351 6.84902111 23.06239382 9 24 C9.33 22.68 9.66 21.36 10 20 C10 21.65 10 23.3 10 25 C8.375 25.75 8.375 25.75 6 26 C0.19050695 23.28066283 -2.79061618 18.97105024 -5 13 C-5.59652001 8.6955658 -5.37291749 5.11875248 -4 1 C-1 0 -1 0 0 0 Z " fill="#B2B2B2" transform="translate(284,97)"/>
<path d="M0 0 C0.99 0 1.98 0 3 0 C1.62756503 2.9405804 0.03866503 5.4300669 -1.93359375 8.00390625 C-2.50013672 8.74447266 -3.06667969 9.48503906 -3.65039062 10.24804688 C-4.24013672 11.01181641 -4.82988281 11.77558594 -5.4375 12.5625 C-6.02337891 13.33013672 -6.60925781 14.09777344 -7.21289062 14.88867188 C-12.57925941 21.87530638 -12.57925941 21.87530638 -15 24 C-15.66 24 -16.32 24 -17 24 C-18.62514468 25.45833358 -18.62514468 25.45833358 -20 27 C-20.66 26.67 -21.32 26.34 -22 26 C-20.74896484 24.56720703 -20.74896484 24.56720703 -19.47265625 23.10546875 C-18.33570323 21.79968311 -17.19900197 20.49367824 -16.0625 19.1875 C-15.47291504 18.51130615 -14.88333008 17.8351123 -14.27587891 17.13842773 C-9.95986811 12.1668575 -5.82670072 7.09234602 -1.8046875 1.87890625 C-1.20914063 1.25886719 -0.61359375 0.63882813 0 0 Z " fill="#C4C4C4" transform="translate(192,36)"/>
<path d="M0 0 C6.57692308 0.57692308 6.57692308 0.57692308 8 2 C8.29178308 4.77193929 8.36366316 6.41409825 6.875 8.8125 C4.14012639 10.54458662 2.16259871 10.40373601 -1 10 C-3 7 -3 7 -2.75 4.4375 C-2 2 -2 2 0 0 Z " fill="#CFCFCF" transform="translate(487,86)"/>
<path d="M0 0 C-0.33 0.99 -0.66 1.98 -1 3 C-1.94359375 3.14695312 -1.94359375 3.14695312 -2.90625 3.296875 C-12.29376821 4.93686312 -18.68104689 7.77833931 -25 15 C-26.35619629 17.19922622 -26.35619629 17.19922622 -27 19 C-27.66 17.68 -28.32 16.36 -29 15 C-21.60415722 5.05473701 -12.40301937 -0.2385196 0 0 Z " fill="#C5C5C5" transform="translate(86,84)"/>
<path d="M0 0 C0.33 0 0.66 0 1 0 C1.73390929 7.27113837 1.26208409 12.19375197 -3.20703125 18.1171875 C-5.90038939 20.94550694 -8.42929634 22.4206503 -12 24 C-12.66 24 -13.32 24 -14 24 C-14.33 23.01 -14.66 22.02 -15 21 C-14.2575 20.608125 -13.515 20.21625 -12.75 19.8125 C-8.87823367 17.26065401 -6.71552293 14.21088497 -4.375 10.25 C-3 8 -3 8 -1 7 C-0.59270772 4.67843403 -0.25561323 2.3431213 0 0 Z " fill="#CCCCCC" transform="translate(226,106)"/>
<path d="M0 0 C2 2 2 2 2.125 5.625 C2.08375 6.73875 2.0425 7.8525 2 9 C1.34 7.68 0.68 6.36 0 5 C-0.74443359 6.08667969 -0.74443359 6.08667969 -1.50390625 7.1953125 C-5.54602033 12.94784677 -9.33245943 17.80601998 -15 22 C-15.66 22 -16.32 22 -17 22 C-17.33 21.01 -17.66 20.02 -18 19 C-17.5153125 18.68289062 -17.030625 18.36578125 -16.53125 18.0390625 C-9.56658996 13.19058762 -4.68150561 7.02225841 0 0 Z " fill="#C6C6C6" transform="translate(167,128)"/>
<path d="M0 0 C6.19230769 -0.47633136 6.19230769 -0.47633136 9.4375 1.4375 C11.78538543 5.2880321 11.60724495 8.60270899 11 13 C10.18541885 16.08144411 9.17605532 19.03886072 8 22 C7.01 22 6.02 22 5 22 C4.67 21.01 4.34 20.02 4 19 C4.66 19 5.32 19 6 19 C7.03590199 13.94997778 7.10251672 9.12583611 7 4 C5.35 3.67 3.7 3.34 2 3 C2 2.34 2 1.68 2 1 C1.34 0.67 0.68 0.34 0 0 Z " fill="#B8B8B8" transform="translate(402,103)"/>
<path d="M0 0 C0.99 0 1.98 0 3 0 C2.35153699 3.68353732 1.35535728 7.05470988 0.0625 10.5625 C-0.27652344 11.49191406 -0.61554688 12.42132813 -0.96484375 13.37890625 C-1.86745538 15.66438703 -2.85920872 17.82584621 -4 20 C-4.33 19.01 -4.66 18.02 -5 17 C-5.66 17.66 -6.32 18.32 -7 19 C-6.67422369 11.83292123 -3.34556372 6.23072876 0 0 Z " fill="#CACACA" transform="translate(301,98)"/>
<path d="M0 0 C0.33 0.99 0.66 1.98 1 3 C-1.70624826 7.11349735 -5.11749544 10.04592045 -9 13 C-9.66 13 -10.32 13 -11 13 C-11.33 14.32 -11.66 15.64 -12 17 C-12.66 15.68 -13.32 14.36 -14 13 C-13.67 12.67 -13.34 12.34 -13 12 C-12.76924918 10.65252916 -12.58846937 9.29622435 -12.4375 7.9375 C-12.293125 6.638125 -12.14875 5.33875 -12 4 C-11.01 5.485 -11.01 5.485 -10 7 C-6.05860922 5.33248852 -3.2107188 2.77289351 0 0 Z " fill="#D4D4D4" transform="translate(352,103)"/>
<path d="M0 0 C0.66 0.33 1.32 0.66 2 1 C1.071875 1.845625 0.14375 2.69125 -0.8125 3.5625 C-3.97074093 6.71332722 -5.42645973 9.80389261 -7 14 C-7.98537521 16.0072458 -8.98063057 18.00980253 -10 20 C-10.66 20 -11.32 20 -12 20 C-12.66 20.66 -13.32 21.32 -14 22 C-13.52669034 12.77046166 -6.44966727 5.93445716 0 0 Z " fill="#CACACA" transform="translate(28,122)"/>
<path d="M0 0 C2 2 2 2 2.125 5.625 C2.08375 6.73875 2.0425 7.8525 2 9 C1.34 8.01 0.68 7.02 0 6 C-0.59167969 6.62648437 -1.18335938 7.25296875 -1.79296875 7.8984375 C-2.58316406 8.71570313 -3.37335938 9.53296875 -4.1875 10.375 C-4.96480469 11.18710938 -5.74210938 11.99921875 -6.54296875 12.8359375 C-9.02736241 15.0240998 -10.7906057 16.21209632 -14 17 C-14.99 16.34 -15.98 15.68 -17 15 C-15.824375 14.505 -14.64875 14.01 -13.4375 13.5 C-7.39576389 10.50596026 -3.67659037 5.51488556 0 0 Z " fill="#BFBFBF" transform="translate(197,128)"/>
<path d="M0 0 C-0.875 7.625 -0.875 7.625 -2 11 C-2.66 11 -3.32 11 -4 11 C-4.061875 11.556875 -4.12375 12.11375 -4.1875 12.6875 C-5.33373872 15.94987173 -7.49390197 17.68667874 -10 20 C-10.66 19.34 -11.32 18.68 -12 18 C-11.60167969 17.52691406 -11.20335937 17.05382812 -10.79296875 16.56640625 C-7.24826191 12.14199114 -5.10825609 8.26995706 -3.640625 2.78515625 C-2.92570464 0.79296964 -2.2505664 0 0 0 Z " fill="#B7B7B7" transform="translate(342,116)"/>
<path d="M0 0 C0.66 0 1.32 0 2 0 C1.44019394 4.97069177 -0.83834201 8.61818417 -3.375 12.8125 C-3.77460938 13.50537109 -4.17421875 14.19824219 -4.5859375 14.91210938 C-5.63547232 16.66421109 -6.80992049 18.34015226 -8 20 C-8.99 20 -9.98 20 -11 20 C-9.68332049 17.32500685 -8.30154238 14.70558937 -6.8359375 12.109375 C-6.43632812 11.40039062 -6.03671875 10.69140625 -5.625 9.9609375 C-5.2125 9.23132813 -4.8 8.50171875 -4.375 7.75 C-3.95476562 7.00492187 -3.53453125 6.25984375 -3.1015625 5.4921875 C-2.06856935 3.66097237 -1.03440045 1.83042056 0 0 Z " fill="#B0B0B0" transform="translate(498,117)"/>
<path d="M0 0 C0.66 0.66 1.32 1.32 2 2 C1.625 4.125 1.625 4.125 1 6 C0.67 5.67 0.34 5.34 0 5 C-0.35191406 5.45890625 -0.70382813 5.9178125 -1.06640625 6.390625 C-4.64388465 10.83678615 -7.84760038 13.5228848 -13 16 C-13.66 16 -14.32 16 -15 16 C-15 15.01 -15 14.02 -15 13 C-13.824375 12.525625 -12.64875 12.05125 -11.4375 11.5625 C-6.14766634 8.96944428 -3.262276 4.77107865 0 0 Z " fill="#B8B8B8" transform="translate(226,130)"/>
<path d="M0 0 C0.66 1.32 1.32 2.64 2 4 C-2.75 9.875 -2.75 9.875 -5 11 C-10.53846154 11.23076923 -10.53846154 11.23076923 -13 10 C-13.33 10.99 -13.66 11.98 -14 13 C-14.99 12.34 -15.98 11.68 -17 11 C-15.68 9.68 -14.36 8.36 -13 7 C-13 7.66 -13 8.32 -13 9 C-12.34 9 -11.68 9 -11 9 C-10.67 8.34 -10.34 7.68 -10 7 C-9.443125 7.268125 -8.88625 7.53625 -8.3125 7.8125 C-5.714232 8.29543521 -5.714232 8.29543521 -3.3125 5.75 C-0.8501645 3.1647331 -0.8501645 3.1647331 0 0 Z " fill="#C1C1C1" transform="translate(413,130)"/>
<path d="M0 0 C0.66 0 1.32 0 2 0 C0.65651525 4.48052165 -1.13141124 8.28288819 -3.5 12.3125 C-4.1084375 13.36050781 -4.716875 14.40851563 -5.34375 15.48828125 C-7 18 -7 18 -9 19 C-9.66 18.34 -10.32 17.68 -11 17 C-10.54109375 16.35933594 -10.0821875 15.71867188 -9.609375 15.05859375 C-6.1323166 10.15711017 -2.86988604 5.28059031 0 0 Z " fill="#AFAFAF" transform="translate(255,118)"/>
<path d="M0 0 C0 0.99 0 1.98 0 3 C-9.41002278 6.44419134 -9.41002278 6.44419134 -14 6 C-8.96308234 0.83053187 -7.24243188 -0.13411911 0 0 Z " fill="#202020" transform="translate(147,53)"/>
<path d="M0 0 C1.5 1 1.5 1 3 3 C3.39491399 5.79873829 3.227129 8.13817454 3 11 C2.34 11.66 1.68 12.32 1 13 C0.01 12.67 -0.98 12.34 -2 12 C-2 8.37 -2 4.74 -2 1 C-1.34 0.67 -0.68 0.34 0 0 Z " fill="#B4B4B4" transform="translate(194,104)"/>
<path d="M0 0 C3 1 3 1 4.421875 3.14453125 C4.86015625 4.02496094 5.2984375 4.90539062 5.75 5.8125 C6.19859375 6.68519531 6.6471875 7.55789062 7.109375 8.45703125 C8.39525599 12.12855987 7.546925 13.84180589 5.9375 17.25 C5.628125 17.8275 5.31875 18.405 5 19 C4.85304688 17.80503906 4.85304688 17.80503906 4.703125 16.5859375 C3.82635407 10.37295727 3.05194808 5.86233769 -1 1 C-0.67 0.67 -0.34 0.34 0 0 Z " fill="#A4A4A4" transform="translate(334,95)"/>
<path d="M0 0 C0.66 0.99 1.32 1.98 2 3 C4.67872068 6.69478715 7.08368625 8.71548364 11 11 C11 11.66 11 12.32 11 13 C6.59124045 12.49614177 4.17449034 11.0886933 1 8 C-0.375 5.4375 -0.375 5.4375 -1 3 C-0.67 2.01 -0.34 1.02 0 0 Z " fill="#B8B8B8" transform="translate(59,109)"/>
<path d="M0 0 C0.99 0.33 1.98 0.66 3 1 C1.73657512 2.48549956 0.4639897 3.96321189 -0.8125 5.4375 C-1.52019531 6.26121094 -2.22789062 7.08492187 -2.95703125 7.93359375 C-5 10 -5 10 -8 11 C-8.66 10.34 -9.32 9.68 -10 9 C-6.25 6 -6.25 6 -4 6 C-3.71125 5.38125 -3.4225 4.7625 -3.125 4.125 C-2 2 -2 2 0 0 Z " fill="#C2C2C2" transform="translate(459,134)"/>
<path d="M0 0 C-0.33 0.99 -0.66 1.98 -1 3 C-6.28 2.34 -11.56 1.68 -17 1 C-17 0.67 -17 0.34 -17 0 C-11.24153561 -1.39599137 -5.75846439 -1.39599137 0 0 Z " fill="#BFBFBF" transform="translate(119,57)"/>
<path d="M0 0 C0.99 0.33 1.98 0.66 3 1 C2.38511719 1.68835938 2.38511719 1.68835938 1.7578125 2.390625 C1.21898438 3.00421875 0.68015625 3.6178125 0.125 4.25 C-0.40867187 4.85328125 -0.94234375 5.4565625 -1.4921875 6.078125 C-2.9797487 7.97418746 -4.00322436 9.81290005 -5 12 C-5.66 10.68 -6.32 9.36 -7 8 C-4.69 5.36 -2.38 2.72 0 0 Z " fill="#BCBCBC" transform="translate(64,91)"/>
<path d="M0 0 C2 2 2 2 2.125 5.625 C2.08375 6.73875 2.0425 7.8525 2 9 C1.34 7.68 0.68 6.36 0 5 C-1.98 7.97 -1.98 7.97 -4 11 C-4.99 10.34 -5.98 9.68 -7 9 C-4.69 6.03 -2.38 3.06 0 0 Z " fill="#B8B8B8" transform="translate(167,128)"/>
<path d="M0 0 C1 3 1 3 0.07421875 5.04296875 C-0.61220703 6.10451172 -0.61220703 6.10451172 -1.3125 7.1875 C-1.76238281 7.90292969 -2.21226562 8.61835938 -2.67578125 9.35546875 C-3.11277344 9.89816406 -3.54976563 10.44085938 -4 11 C-4.66 11 -5.32 11 -6 11 C-5.44509362 7.67056175 -4.79000672 4.88389972 -3 2 C-2.01 1.34 -1.02 0.68 0 0 Z " fill="#C7C7C7" transform="translate(466,123)"/>
<path d="M0 0 C0.66 0.33 1.32 0.66 2 1 C2 1.66 2 2.32 2 3 C0.52999567 4.27400375 -0.94515781 5.5435008 -2.46484375 6.7578125 C-4.09066342 8.07336124 -5.56202021 9.48213245 -7 11 C-7.66 10.67 -8.32 10.34 -9 10 C-7.61811547 6.78956118 -6.07578097 4.95063635 -3.375 2.75 C-2.74335938 2.22921875 -2.11171875 1.7084375 -1.4609375 1.171875 C-0.73777344 0.59179688 -0.73777344 0.59179688 0 0 Z " fill="#B7B7B7" transform="translate(446,106)"/>
<path d="M0 0 C2.53541298 0.09086451 5.03554784 0.2370945 7.5625 0.4375 C8.62887695 0.51581055 8.62887695 0.51581055 9.71679688 0.59570312 C11.47821999 0.72574107 13.23916173 0.86226897 15 1 C12.86936553 2.87825864 11.62845563 3.95970042 8.74609375 4.14453125 C7.98425781 4.03496094 7.22242188 3.92539063 6.4375 3.8125 C5.67308594 3.71582031 4.90867187 3.61914062 4.12109375 3.51953125 C2 3 2 3 -1 1 C-0.67 0.67 -0.34 0.34 0 0 Z " fill="#AFAFAF" transform="translate(53,134)"/>
<path d="M0 0 C0.66 0 1.32 0 2 0 C1.3203125 1.890625 1.3203125 1.890625 0 4 C-2.3828125 5.046875 -2.3828125 5.046875 -5.125 5.75 C-6.03507813 5.99234375 -6.94515625 6.2346875 -7.8828125 6.484375 C-8.93082031 6.73960938 -8.93082031 6.73960938 -10 7 C-10.66 6.01 -11.32 5.02 -12 4 C-11.21753906 3.79503906 -10.43507812 3.59007813 -9.62890625 3.37890625 C-8.61699219 3.10949219 -7.60507813 2.84007813 -6.5625 2.5625 C-5.55316406 2.29566406 -4.54382813 2.02882813 -3.50390625 1.75390625 C-1.08247999 1.24021923 -1.08247999 1.24021923 0 0 Z " fill="#BABABA" transform="translate(175,90)"/>
<path d="M0 0 C0.6875 1.625 0.6875 1.625 1 4 C-0.4375 7.25 -0.4375 7.25 -2 10 C-5 10 -5 10 -7 9 C-6.21448343 7.68381002 -5.4213763 6.37214772 -4.625 5.0625 C-4.18414062 4.33160156 -3.74328125 3.60070312 -3.2890625 2.84765625 C-2 1 -2 1 0 0 Z " fill="#C4C4C4" transform="translate(356,95)"/>
<path d="M0 0 C4.41889613 1.35021826 6.34345343 3.26115668 9 7 C5.58678765 7 4.60527115 6.33132534 1.8125 4.5 C1.09707031 4.0359375 0.38164062 3.571875 -0.35546875 3.09375 C-0.89816406 2.7328125 -1.44085938 2.371875 -2 2 C-1.34 1.34 -0.68 0.68 0 0 Z " fill="#C4C4C4" transform="translate(326,88)"/>
<path d="M0 0 C0.66 0.33 1.32 0.66 2 1 C-1.96 4.96 -5.92 8.92 -10 13 C-10 8.83248505 -7.76127698 6.85829482 -5 4 C-3.36927384 2.62294236 -1.7133562 1.27277889 0 0 Z " fill="#C2C2C2" transform="translate(40,61)"/>
<path d="M0 0 C3.9492568 0.55105909 7.34920174 1.38935371 11 3 C10.67 3.66 10.34 4.32 10 5 C6.28111761 4.49287967 3.26545761 3.88391785 0 2 C0 1.34 0 0.68 0 0 Z " fill="#C4C4C4" transform="translate(43,130)"/>
<path d="M0 0 C0.58203125 1.84375 0.58203125 1.84375 1 4 C-0.3125 6.5 -0.3125 6.5 -2 9 C-2.68096422 10.32608822 -3.35330586 11.65686601 -4 13 C-4.8125 11 -4.8125 11 -5 8 C-3.58832428 5.15031132 -1.85115239 2.58136476 0 0 Z " fill="#B6B6B6" transform="translate(427,106)"/>
<path d="M0 0 C2 2 2 2 2.125 5.625 C2.08375 6.73875 2.0425 7.8525 2 9 C1.34 8.01 0.68 7.02 0 6 C-0.99 6.66 -1.98 7.32 -3 8 C-3.33 7.34 -3.66 6.68 -4 6 C-2.68 4.02 -1.36 2.04 0 0 Z " fill="#A3A3A3" transform="translate(197,128)"/>
<path d="M0 0 C0.33 0.99 0.66 1.98 1 3 C-0.375 4.5 -0.375 4.5 -2 6 C-2.66 6 -3.32 6 -4 6 C-5.62514468 7.45833358 -5.62514468 7.45833358 -7 9 C-7.66 8.67 -8.32 8.34 -9 8 C-3.85714286 1.42857143 -3.85714286 1.42857143 0 0 Z " fill="#C8C8C8" transform="translate(179,54)"/>
<path d="M0 0 C-0.33 0.99 -0.66 1.98 -1 3 C-2.84765625 3.73046875 -2.84765625 3.73046875 -5.0625 4.1875 C-5.79597656 4.34605469 -6.52945313 4.50460938 -7.28515625 4.66796875 C-8.13400391 4.83232422 -8.13400391 4.83232422 -9 5 C-9.33 4.01 -9.66 3.02 -10 2 C-8.71211992 1.46987262 -7.41953322 0.9511671 -6.125 0.4375 C-5.40570313 0.14746094 -4.68640625 -0.14257812 -3.9453125 -0.44140625 C-2 -1 -2 -1 0 0 Z " fill="#C5C5C5" transform="translate(55,160)"/>
<path d="M0 0 C3.3 0.99 6.6 1.98 10 3 C10 3.66 10 4.32 10 5 C3.375 4.25 3.375 4.25 0 2 C0 1.34 0 0.68 0 0 Z " fill="#C4C4C4" transform="translate(279,146)"/>
<path d="M0 0 C0.66 0 1.32 0 2 0 C0.55746343 3.36591866 -1.33264727 5.51047079 -4 8 C-4.99 7.67 -5.98 7.34 -7 7 C-4.66666667 4.66666667 -2.33333333 2.33333333 0 0 Z " fill="#C6C6C6" transform="translate(244,136)"/>
<path d="M0 0 C1.20628008 2.33214148 2.1654738 4.49642139 3 7 C2.0625 9.1875 2.0625 9.1875 1 11 C0.67 10.01 0.34 9.02 0 8 C-0.66 8.66 -1.32 9.32 -2 10 C-1.54177532 6.53058454 -1.10868317 3.32604951 0 0 Z " fill="#B0B0B0" transform="translate(296,107)"/>
<path d="M0 0 C-1.44253657 3.36591866 -3.33264727 5.51047079 -6 8 C-6.66 7.34 -7.32 6.68 -8 6 C-3.375 0 -3.375 0 0 0 Z " fill="#BABABA" transform="translate(195,36)"/>
<path d="M0 0 C0.33 0 0.66 0 1 0 C1 3.63 1 7.26 1 11 C-0.66666667 11 -2.33333333 11 -4 11 C-3.67 10.01 -3.34 9.02 -3 8 C-2.34 7.67 -1.68 7.34 -1 7 C-0.59270772 4.67843403 -0.25561323 2.3431213 0 0 Z " fill="#BFBFBF" transform="translate(226,106)"/>
<path d="M0 0 C6.625 -0.25 6.625 -0.25 10 2 C10 2.66 10 3.32 10 4 C7.36 3.67 4.72 3.34 2 3 C2 2.34 2 1.68 2 1 C1.34 0.67 0.68 0.34 0 0 Z " fill="#C5C5C5" transform="translate(402,103)"/>
<path d="M0 0 C0.33 0 0.66 0 1 0 C1.33 4.62 1.66 9.24 2 14 C1.01 14 0.02 14 -1 14 C-2.4552777 11.0894446 -1.63516661 9.04150948 -1.0625 5.875 C-0.77052734 4.23144531 -0.77052734 4.23144531 -0.47265625 2.5546875 C-0.31667969 1.71164063 -0.16070312 0.86859375 0 0 Z " fill="#A2A2A2" transform="translate(357,82)"/>
<path d="M0 0 C0.33 0.66 0.66 1.32 1 2 C-1.31 2.66 -3.62 3.32 -6 4 C-6 3.34 -6 2.68 -6 2 C-6.66 1.67 -7.32 1.34 -8 1 C-2.25 -1.125 -2.25 -1.125 0 0 Z " fill="#C1C1C1" transform="translate(319,144)"/>
<path d="M0 0 C-0.33 0.66 -0.66 1.32 -1 2 C-3.64860427 2.59355614 -6.29197322 2.74209269 -9 3 C-9.33 2.01 -9.66 1.02 -10 0 C-6.33694766 -0.74926071 -3.57644848 -1.2380014 0 0 Z " fill="#C5C5C5" transform="translate(323,123)"/>
<path d="M0 0 C0.33 0 0.66 0 1 0 C0.25 7.625 0.25 7.625 -2 11 C-3.22718053 5.60040568 -3.22718053 5.60040568 -2.125 2.6875 C-1 1 -1 1 0 0 Z " fill="#A0A0A0" transform="translate(341,116)"/>
<path d="M0 0 C0.33 0 0.66 0 1 0 C0.67 3.96 0.34 7.92 0 12 C-2.31332486 8.53001271 -2.33957563 7.07490752 -2 3 C-1.34 2.01 -0.68 1.02 0 0 Z " fill="#DFDFDF" transform="translate(282,99)"/>
<path d="M0 0 C0.66 1.32 1.32 2.64 2 4 C0.35 5.98 -1.3 7.96 -3 10 C-4 7 -4 7 -3.22265625 5.17578125 C-2.1484375 3.45052083 -1.07421875 1.72526042 0 0 Z " fill="#AEAEAE" transform="translate(413,130)"/>
<path d="M0 0 C0 0.66 0 1.32 0 2 C-4.625 4.125 -4.625 4.125 -8 3 C-8.33 2.34 -8.66 1.68 -9 1 C-5.846632 0.29925156 -3.27275026 0 0 0 Z " fill="#C0C0C0" transform="translate(147,57)"/>
<path d="M0 0 C1.2380014 3.57644848 0.74926071 6.33694766 0 10 C-0.66 9.67 -1.32 9.34 -2 9 C-2.25 3.375 -2.25 3.375 0 0 Z " fill="#DFDFDF" transform="translate(16,141)"/>
<path d="M0 0 C-5.75 4 -5.75 4 -8 4 C-8 3.01 -8 2.02 -8 1 C-3.375 -1.125 -3.375 -1.125 0 0 Z " fill="#C6C6C6" transform="translate(219,142)"/>
<path d="M0 0 C-1.39332574 3.36720387 -2.9789286 4.9859524 -6 7 C-6.66 6.34 -7.32 5.68 -8 5 C-2.25 0 -2.25 0 0 0 Z " fill="#C5C5C5" transform="translate(488,137)"/>
<path d="M0 0 C0.99 0.33 1.98 0.66 3 1 C1.35 2.65 -0.3 4.3 -2 6 C-2.66 5.34 -3.32 4.68 -4 4 C-2.68 2.68 -1.36 1.36 0 0 Z " fill="#B6B6B6" transform="translate(459,134)"/>
<path d="M0 0 C4.75 1.875 4.75 1.875 7 3 C7 3.66 7 4.32 7 5 C4.625 4.75 4.625 4.75 2 4 C0.6875 1.9375 0.6875 1.9375 0 0 Z " fill="#CECECE" transform="translate(63,117)"/>
<path d="M0 0 C0.66 0 1.32 0 2 0 C1.50351065 4.46840411 1.31012244 5.68987756 -2 9 C-1.34 6.03 -0.68 3.06 0 0 Z " fill="#C3C3C3" transform="translate(337,124)"/>
</svg>
