<svg xmlns="http://www.w3.org/2000/svg" viewBox="0 0 832.724964 236.312149" fill="#FFFFFF">
<g transform="translate(-102.000000,643.690559) scale(0.100000,-0.100000)" fill="#FFFFFF" stroke="#0F0E0E" stroke-width="12" paint-order="fill stroke">
<path fill="#FFFFFF" d="M3425 6434 c-16 -2 -84 -11 -150 -20 -124 -16 -462 -87 -620 -131
-49 -13 -99 -27 -110 -30 -408 -109 -1126 -352 -1240 -420 -19 -12 -19 -12 5
-13 14 0 41 5 60 11 19 5 130 35 245 65 249 64 427 111 585 153 248 66 530
133 640 151 433 72 597 76 732 18 76 -33 88 -80 42 -172 -108 -215 -448 -452
-834 -580 -161 -54 -312 -98 -317 -92 -2 2 36 70 84 152 47 82 136 238 197
346 118 210 150 248 228 269 30 8 37 13 29 23 -11 13 -23 12 -156 -14 -113
-21 -549 -122 -685 -157 -52 -14 -155 -40 -227 -58 -141 -36 -189 -54 -142
-55 14 0 50 4 80 10 389 69 549 71 549 8 0 -11 -83 -160 -185 -330 -430 -716
-608 -936 -1072 -1321 -79 -66 -143 -123 -143 -127 0 -16 56 7 196 80 359 188
681 389 909 568 116 92 405 371 405 392 0 20 -29 9 -77 -28 -92 -72 -303 -217
-303 -208 0 2 16 23 35 47 20 23 83 113 141 201 90 137 108 158 127 154 38 -8
102 -19 112 -20 5 -1 17 -23 27 -51 107 -294 222 -452 393 -536 123 -60 186
-72 347 -67 76 2 137 3 135 2 -1 -1 -88 -23 -193 -48 -509 -121 -1014 -298
-1379 -484 -154 -79 -98 -67 390 83 66 21 161 48 210 62 50 14 122 34 160 45
119 34 604 158 730 188 66 15 198 46 294 69 96 23 176 40 178 38 2 -2 -18 -10
-44 -16 -159 -41 -568 -167 -618 -190 -11 -5 -45 -19 -75 -30 -135 -49 36 -13
585 123 662 164 948 232 1020 241 28 4 61 10 75 15 14 5 45 11 70 14 25 2 99
13 165 24 66 12 149 23 185 25 65 5 65 5 10 -4 -301 -53 -749 -149 -930 -200
-228 -65 -529 -159 -607 -190 -53 -21 -73 -44 -30 -34 525 125 1326 287 1752
355 224 35 325 51 399 60 39 5 141 18 226 29 200 26 506 57 690 71 206 15 310
30 310 47 0 10 -19 13 -76 13 -54 0 -80 4 -90 15 -12 11 -43 15 -132 16 -64 1
-153 3 -197 4 -81 2 -710 -20 -820 -29 -33 -3 -103 -8 -155 -11 -230 -14 -701
-56 -895 -80 -146 -18 -358 -50 -445 -66 -30 -6 -80 -14 -110 -19 -30 -5 -131
-25 -225 -44 -114 -23 -172 -31 -176 -24 -4 6 -16 9 -26 6 -30 -8 -142 10
-201 32 -224 84 -398 245 -528 489 -16 29 -44 66 -63 83 -18 16 -32 31 -30 32
2 2 46 15 97 30 261 74 580 214 762 334 122 80 257 219 303 312 32 64 37 82
37 146 0 67 -3 76 -33 116 -40 53 -114 94 -204 114 -67 14 -349 27 -408 18z
m495 -1814 c-8 -5 -24 -9 -35 -9 -20 0 -20 0 0 9 30 13 55 13 35 0z M7003
6314 c-91 -15 -256 -65 -316 -96 -46 -23 -36 -48 19 -48 19 0 34 -5 34 -12 0
-6 -41 -72 -92 -147 -222 -329 -323 -485 -435 -676 -152 -258 -163 -295 -86
-295 57 0 123 42 213 136 140 148 280 263 378 313 31 16 29 12 -32 -78 -72
-106 -153 -258 -161 -303 -6 -30 -3 -38 16 -52 46 -32 137 -12 292 65 81 40
95 45 86 27 -37 -69 -23 -116 30 -103 44 11 153 81 265 173 160 129 149 124
126 60 -108 -310 0 -313 375 -10 44 35 88 74 99 86 10 11 45 49 77 84 78 83
176 229 162 243 -13 13 -67 14 -178 4 -49 -5 -93 -8 -96 -7 -13 3 3 -37 17
-42 54 -21 -72 -211 -219 -328 -38 -30 -38 -30 -17 23 32 81 124 240 159 273
66 63 30 70 -123 24 -77 -22 -84 -27 -195 -130 -63 -60 -119 -108 -123 -108
-5 0 -21 -11 -36 -25 -15 -14 -31 -25 -37 -25 -6 0 -5 4 1 8 7 4 28 34 47 67
19 33 67 107 105 165 42 62 66 107 60 111 -28 18 -149 -12 -257 -62 -80 -38
-85 -41 -67 -55 11 -8 24 -14 29 -14 5 0 -8 -30 -29 -67 -20 -38 -49 -90 -63
-117 -36 -68 -88 -115 -174 -159 -40 -20 -76 -37 -80 -37 -9 0 69 148 112 215
14 22 34 56 44 75 10 19 42 68 73 108 71 95 68 112 -19 112 -47 0 -84 -8 -152
-35 -91 -35 -264 -128 -277 -148 -4 -6 -10 -9 -13 -5 -4 3 12 32 35 64 80 114
155 221 264 379 125 182 242 341 256 350 14 9 12 35 -2 34 -7 -1 -50 -8 -95
-15z M5442 5715 c-221 -62 -451 -323 -469 -533 -6 -76 10 -122 49 -143 40 -22
202 -5 297 30 157 59 254 128 285 203 27 63 17 64 -62 6 -115 -86 -277 -132
-315 -90 -38 42 -24 58 80 91 130 42 215 91 294 170 79 79 101 119 103 184 1
43 -3 52 -27 71 -36 27 -157 33 -235 11z m63 -142 c-38 -92 -102 -157 -198
-204 -33 -16 -62 -29 -64 -29 -11 0 66 127 101 167 48 54 120 103 153 103 23
0 23 0 8 -37z M4701 5707 c-49 -10 -190 -81 -263 -133 -27 -19 -48 -30 -48
-25 0 5 4 11 9 13 13 5 61 105 61 128 0 37 -106 20 -245 -39 -93 -40 -110 -64
-51 -75 16 -3 30 -6 31 -8 7 -8 -162 -248 -195 -276 -25 -21 -182 -124 -184
-120 -8 9 217 404 248 438 38 41 51 71 35 82 -22 15 -217 2 -299 -20 -395
-104 -690 -379 -641 -598 26 -116 119 -137 240 -54 35 23 99 74 143 112 83 73
86 74 64 10 -32 -89 -15 -152 40 -152 27 0 131 53 215 109 59 40 71 37 44 -9
-49 -86 27 -105 133 -34 19 12 64 60 100 105 120 149 269 290 361 339 24 13
24 13 1 -26 -200 -337 -235 -420 -191 -443 39 -21 78 7 202 148 123 138 234
244 301 287 51 33 53 31 20 -18 -48 -70 -180 -296 -201 -344 -29 -64 -20 -78
42 -70 28 4 64 13 82 20 31 13 110 105 154 181 13 22 69 116 123 208 151 255
153 267 62 267 -62 0 -165 -46 -292 -132 l-74 -49 42 76 c54 99 38 124 -69
102z m-885 -142 c-17 -46 -115 -171 -192 -246 -86 -83 -210 -176 -221 -166
-26 27 76 187 183 285 95 88 248 172 230 127z M6000 5704 c-179 -38 -326 -168
-304 -268 8 -41 36 -70 117 -123 76 -50 83 -69 39 -112 -58 -59 -191 -87 -253
-55 -29 14 -32 14 -52 -3 -12 -10 -26 -24 -30 -30 -4 -7 -28 -26 -52 -43 -74
-51 -59 -70 54 -70 271 0 495 86 591 225 51 74 38 124 -46 176 -114 72 -134
88 -134 113 0 71 183 109 226 48 31 -45 54 -36 132 45 40 43 71 82 69 88 -9
26 -249 33 -357 9z M8399 5680 c-211 -27 -414 -150 -570 -346 -98 -123 -133
-227 -93 -279 13 -17 26 -20 92 -20 85 1 154 29 279 112 32 22 63 43 69 46 7
4 1 -25 -12 -63 -19 -54 -22 -75 -14 -90 25 -46 138 -9 290 95 72 50 82 54 66
30 -27 -41 -47 -120 -33 -134 39 -39 125 24 256 187 157 196 308 300 417 289
66 -7 74 -2 143 78 82 95 80 105 -24 105 -101 0 -214 -50 -350 -154 -22 -16
-33 -21 -24 -11 24 29 79 136 79 153 0 49 -291 -36 -298 -87 -3 -17 2 -21 22
-21 33 0 33 -1 -15 -90 -50 -92 -112 -175 -142 -191 -12 -7 -38 -24 -57 -39
-19 -15 -47 -32 -62 -38 -27 -11 -27 -11 8 49 119 203 199 327 226 350 37 32
32 42 -29 63 -48 17 -127 19 -224 6z m9 -107 c-7 -18 -77 -111 -125 -168 -77
-92 -288 -243 -309 -222 -21 21 123 224 190 269 18 13 51 36 74 51 58 41 179
90 170 70z"/>
</g>
</svg>